<?xml version="1.0" encoding="utf-8"?>
<!DOCTYPE svg PUBLIC "-//W3C//DTD SVG 1.0//EN" "http://www.w3.org/TR/2001/REC-SVG-20010904/DTD/svg10.dtd">
<svg version="1.0" xmlns="http://www.w3.org/2000/svg" width="363px" height="159px" viewBox="0 0 363 159" preserveAspectRatio="xMidYMid meet">
 <g fill="#ffffff">
  <path d="M0 79.5 l0 -79.5 181.5 0 181.5 0 0 79.5 0 79.5 -181.5 0 -181.5 0 0 -79.5z m68.2 48.9 c7.1 -2.9 13.5 -7.9 16.9 -13.1 5.5 -8.9 5.9 -11.6 5.9 -46 l0 -31.3 -7 0 -7 0 0 32.4 c0 33.3 -0.3 36.2 -4.2 41.9 -5.9 8.4 -26.2 10.2 -35.6 3 -6.9 -5.2 -7.2 -6.8 -7.2 -44 l0 -33.3 -7 0 -7 0 0 31 c0 18.4 0.4 32.9 1.1 36 2.2 10.2 12 20.2 23.4 24 7.5 2.5 20.6 2.2 27.7 -0.6z m87 0.7 c5.5 -1.7 12.9 -7.1 16 -11.6 5.4 -7.9 5.4 -16.3 0.1 -23.9 -5.3 -7.7 -12.2 -11 -34.3 -16.7 -6.5 -1.7 -9.3 -3 -11.7 -5.5 -3 -2.9 -3.3 -3.7 -3.3 -9.6 0 -10.8 4.2 -14.2 18 -14.2 4.7 -0.1 9.7 0.2 11.2 0.6 4 1.2 8.6 5.5 9.3 8.8 0.6 2.9 0.8 3 7 3 l6.3 0 -1.1 -3.6 c-0.6 -2 -3.1 -5.8 -5.5 -8.5 -16.4 -18.3 -52 -12.3 -58.6 10 -2.1 7.2 -0.2 13.3 5.8 18.9 6.1 5.6 10.2 7.5 24.6 11.2 15.9 4.1 19.7 6 21.7 10.8 3.3 7.9 0 16.7 -7.4 19.8 -3.9 1.7 -20.9 1.9 -25 0.3 -4 -1.5 -8.1 -5.7 -9.4 -9.6 -1 -3.3 -1.1 -3.3 -7.5 -3.3 l-6.4 0 2 5.2 c3.3 8.7 12.3 16.2 22.7 18.8 4.7 1.1 20.6 0.6 25.5 -0.9z m73.8 -40.1 l0 -41 15 0 15 0 0 -5 0 -5 -37 0 -37 0 0 5 0 5 15 0 15 0 0 41 0 41 7 0 7 0 0 -41z m102.8 35.8 l-0.3 -5.3 -22.7 -0.3 -22.8 -0.2 0 -15 0 -15 21 0 21 0 0 -5.5 0 -5.5 -21 0 -21 0 0 -15 0 -15 23 0 23 0 0 -5 0 -5 -30 0 -30 0 0 46 0 46 30.1 0 30 0 -0.3 -5.2z"/>
 </g>
 <g fill="#c51e3a">
  <path d="M37.5 132 c-11.4 -3.8 -21.2 -13.8 -23.4 -24 -0.7 -3.1 -1.1 -18.4 -1.1 -39 l0 -34 10 0 10 0 0 33.3 c0 37.2 0.3 38.8 7.2 44 8.6 6.6 23.9 5 29.6 -3 3.9 -5.7 4.2 -8.6 4.2 -41.9 l0 -32.4 10 0 10 0 0 34.3 c0 37.6 -0.3 40 -5.9 49 -3.4 5.2 -9.8 10.2 -16.9 13.1 -7.2 2.9 -25.7 3.3 -33.7 0.6z"/>
  <path d="M126.7 133 c-13.5 -3.4 -24.7 -15.6 -24.7 -27 l0 -3 9.4 0 9.4 0 1.1 3.3 c1.3 3.9 5.4 8.1 9.4 9.6 4 1.5 15.2 1.4 19 -0.3 9.8 -4.1 10.9 -14.9 2 -19.4 -2.1 -1.1 -9.4 -3.4 -16.3 -5.2 -14.4 -3.7 -18.5 -5.6 -24.6 -11.2 -4.5 -4.1 -7.4 -10.8 -7.4 -16.8 0 -8.4 5.9 -18.4 14 -23.5 11 -6.9 30.1 -7.8 42.5 -2 9.3 4.4 16.5 14.4 16.5 22.9 l0 2.6 -9.4 0 -9.4 0 -0.7 -2.9 c-1.3 -5.9 -7.6 -9.5 -16.5 -9.5 -10.2 0 -16 4.1 -16 11.2 0 5.6 4.8 9.4 15 12.1 22.6 5.8 29.2 9.1 34.7 17.3 5.5 8.3 5.3 20.8 -0.5 29.3 -3.1 4.5 -10.5 9.9 -16 11.6 -4.7 1.5 -26.5 2.1 -31.5 0.9z"/>
  <path d="M212 92 l0 -41 -15 0 -15 0 0 -8 0 -8 40 0 40 0 0 8 0 8 -15 0 -15 0 0 41 0 41 -10 0 -10 0 0 -41z"/>
  <path d="M269 84 l0 -49 33 0 33 0 0 8 0 8 -23 0 -23 0 0 12 0 12 21 0 21 0 0 8.5 0 8.5 -21 0 -21 0 0 12 0 12 22.8 0.2 22.7 0.3 0.3 8.3 0.3 8.2 -33.1 0 -33 0 0 -49z"/>
 </g>
</svg>